<svg width="715" height="151" viewBox="0 0 715 151" fill="none" xmlns="http://www.w3.org/2000/svg">
<path d="M302.336 3.73446C301.857 6.10971 301.697 11.1571 302.016 15.0169C302.495 20.955 303.453 21.8458 308.721 21.8458C320.533 21.8458 320.853 1.95301 309.04 0.171574C305.049 -0.422239 302.974 0.468481 302.336 3.73446Z" fill="white"/>
<path d="M274.88 21.5486C275.359 39.9568 275.199 40.2537 272.166 36.3939C264.344 26.0022 252.692 33.7218 249.02 51.8331C245.029 71.132 248.541 105.573 255.086 112.105C260.034 116.856 268.335 115.965 271.847 110.324C274.72 105.276 274.88 105.276 276.955 110.324C278.232 113.59 281.105 115.371 284.777 115.371H290.523V58.9589V2.54659H282.382H274.241L274.88 21.5486ZM273.603 57.7712C278.551 66.9753 275.838 94.5877 270.091 94.5877C265.462 94.5877 263.387 88.3526 263.387 73.8042C263.387 54.5053 268.016 47.3795 273.603 57.7712Z" fill="white"/>
<path d="M421.418 58.9589V115.371H429.4H437.381V58.9589V2.54659H429.4H421.418V58.9589Z" fill="white"/>
<path d="M12.1317 9.67233C2.87331 15.9074 0.798141 21.2517 0.798141 37.8785C0.798141 55.396 3.35219 61.631 15.3243 72.0227C21.2305 77.3671 23.9442 81.5238 23.9442 85.3835C23.9442 94.5877 16.9206 95.4784 3.67145 87.4619C0.159628 85.3835 0 86.2743 0 98.4474C0 113.887 1.43665 115.371 16.4417 115.371C31.4467 115.371 39.907 103.495 39.907 82.7114C39.907 68.163 36.3952 60.4434 25.3809 49.7547C18.5169 43.5197 15.9628 39.363 16.2821 35.8001C16.9206 30.7527 20.7517 29.862 30.9679 32.5341C34.9586 33.4249 35.9163 32.2372 37.8319 23.9239C39.907 14.7197 39.7474 14.1259 36.2356 11.7507C28.5734 6.40636 18.3572 5.51564 12.1317 9.67233Z" fill="white"/>
<path d="M488.622 8.48491C475.851 14.1261 468.828 31.3467 468.03 58.3652C467.391 83.0085 471.861 101.417 480.481 110.027C486.227 115.668 502.03 117.45 512.247 113.59L517.195 111.512V82.4147V53.0209H505.223H493.251V63.4126C493.251 72.9137 493.57 73.8044 498.04 73.8044C502.35 73.8044 502.829 74.6951 502.829 82.7116C502.829 91.025 502.509 91.6188 496.603 91.6188C487.345 91.6188 483.194 80.9301 483.992 59.5529C485.11 34.3158 492.772 25.7055 507.937 33.1282C511.608 34.9096 512.247 34.0189 513.843 25.7055C516.397 12.3447 516.397 12.3447 507.617 8.78181C498.519 5.21893 496.443 5.21893 488.622 8.48491Z" fill="white"/>
<path d="M121.317 61.9279V115.371H128.501H135.684L135.844 80.3361L136.003 45.5981L138.876 63.4125C140.473 73.2104 143.027 88.9464 144.463 98.1505L147.018 115.371H154.52H162.023L167.929 77.3671L173.675 39.6599L173.835 77.3671L173.995 115.371H181.178H188.361V61.9279V8.48472H177.507H166.811L161.224 44.1135C158.351 63.7094 155.318 79.7423 154.839 79.7423C154.36 79.7423 151.327 63.7094 148.454 44.1135L142.867 8.48472H132.172H121.317V61.9279Z" fill="white"/>
<path d="M47.8887 91.6187V151H56.0297H64.1707L63.5322 130.217C63.213 112.402 63.3726 109.73 65.4478 111.215C69.9174 115.074 79.4951 115.965 82.6876 112.699C93.2231 102.307 93.702 45.895 83.3261 35.5033C78.3777 30.7528 70.077 31.6435 66.5652 37.2847C63.6919 42.3322 63.5322 42.3322 62.0956 37.2847C60.9782 33.7219 58.5838 32.2373 54.2738 32.2373H47.8887V91.6187ZM73.1099 56.5837C74.2273 58.662 75.0255 66.3816 75.0255 74.1012C75.0255 90.431 72.1522 96.6661 67.2037 91.6187C61.2974 85.6805 63.213 53.0208 69.4385 53.0208C70.3962 53.0208 71.9925 54.5053 73.1099 56.5837Z" fill="white"/>
<path d="M206.24 36.6909C200.813 44.1135 197.939 56.8805 197.939 73.8042C197.939 102.901 205.122 115.371 221.405 115.371C235.611 115.371 237.846 113.59 237.846 101.713C237.846 90.1341 238.325 90.7279 229.386 94.8846C221.564 98.4474 213.902 94.5877 213.902 87.165C213.902 83.6021 216.296 82.7114 226.513 82.7114C233.856 82.7114 239.762 81.2269 240.241 79.4454C242.316 73.5073 239.283 50.0517 235.611 42.0352C232.259 34.9094 230.503 33.7218 220.926 32.8311C212.625 32.2373 208.954 33.128 206.24 36.6909ZM224.916 55.6929C226.992 62.8186 225.715 64.897 219.17 64.897C213.742 64.897 212.306 60.1465 215.818 53.6145C218.691 48.2702 223.16 49.1609 224.916 55.6929Z" fill="white"/>
<path d="M301.697 73.8042V115.371H309.679H317.66V73.8042V32.2373H309.679H301.697V73.8042Z" fill="white"/>
<path d="M336.975 35.8004C323.407 49.4581 322.13 96.0725 335.06 110.324C340.327 115.965 354.375 117.153 359.323 112.402C363.473 107.949 363.793 86.8684 359.642 90.1343C347.989 98.4477 341.604 92.5096 341.604 73.8045C341.604 58.6622 345.914 51.8334 353.896 54.2086C359.642 56.287 360.121 55.6932 361.877 46.786C362.994 41.4417 363.473 36.3942 362.994 35.5035C361.079 31.9406 340.647 32.2375 336.975 35.8004Z" fill="white"/>
<path d="M377.201 35.2063C374.009 37.5816 373.849 38.7692 375.286 47.0826C377.201 57.1774 377.042 57.1774 385.183 52.7238C389.652 50.3486 391.887 50.6455 393.643 53.3176C397.314 58.9589 396.197 61.0372 388.216 62.8186C378.159 64.897 372.732 69.9444 370.497 78.8516C367.943 89.5402 368.422 98.7443 372.093 107.652C374.807 113.887 376.722 115.371 382.948 115.371C387.258 115.371 391.887 113.293 394.122 110.621C397.634 105.87 397.953 105.87 399.39 110.621C400.347 113.59 402.901 115.371 406.254 115.371H411.841V89.2433C411.841 58.6619 409.765 42.9259 404.977 36.6908C401.145 31.6434 383.267 30.7527 377.201 35.2063ZM395.878 85.6805C395.878 92.5093 390.77 98.4474 387.258 95.7753C384.704 93.9938 383.746 85.3835 385.821 81.8207C386.3 80.633 388.854 79.7423 391.408 79.7423C394.76 79.7423 395.878 81.2269 395.878 85.6805Z" fill="white"/>
<path d="M528.369 73.8042V115.371H536.351H544.332V90.7279C544.332 63.1155 545.449 58.9589 553.431 58.9589C556.783 58.9589 558.698 57.4743 558.698 54.8022C558.698 52.7238 559.177 46.4888 559.656 41.4414C560.614 32.5342 560.454 32.2373 555.187 32.2373C551.675 32.2373 548.482 34.3156 546.726 38.1754C545.13 41.4414 543.374 44.1135 542.736 44.1135C542.097 44.1135 541.139 41.4414 540.661 38.1754C540.022 33.7218 538.426 32.2373 534.116 32.2373H528.369V73.8042Z" fill="white"/>
<path d="M574.342 36.9878C568.276 42.9259 565.083 55.6929 565.083 73.8042C565.083 102.901 573.703 117.153 589.507 114.777C600.84 112.996 605.789 105.276 608.023 85.6805C610.578 64.3032 606.746 44.4105 598.605 36.6909C592.699 31.0497 579.929 31.0497 574.342 36.9878ZM592.859 64.0063C594.934 77.9609 592.38 92.8063 587.591 93.9939C582.164 95.4784 580.727 91.0248 580.727 74.398C580.727 55.9898 581.844 52.427 587.112 53.6146C590.305 54.2084 591.741 56.8806 592.859 64.0063Z" fill="white"/>
<path d="M617.761 63.4125C617.761 96.0723 619.677 109.73 624.944 113.59C630.212 117.153 640.588 115.371 643.78 110.324C646.654 105.276 646.813 105.276 648.888 110.324C650.006 113.293 652.879 115.371 655.912 115.371H660.861V73.8043V32.2373H653.837H646.813L646.175 58.9589C645.696 79.1486 644.898 87.1651 642.823 91.0249C640.747 94.8846 639.47 95.1816 637.236 92.8063C635.001 90.1341 634.362 84.196 634.043 60.7404L633.564 32.2373H625.742H617.761V63.4125Z" fill="white"/>
<path d="M672.034 91.6187V151H680.175H688.316L687.678 130.217C687.359 112.402 687.518 109.73 689.594 111.215C694.063 115.074 703.641 115.965 706.833 112.699C717.369 102.307 717.848 45.895 707.472 35.5033C702.523 30.7528 694.223 31.6435 690.711 37.2847C687.838 42.3322 687.678 42.3322 686.241 37.2847C685.124 33.7219 682.73 32.2373 678.42 32.2373H672.034V91.6187ZM697.256 56.5837C698.373 58.662 699.171 66.3816 699.171 74.1012C699.171 90.431 696.298 96.6661 691.349 91.6187C685.443 85.6805 687.359 53.0208 693.584 53.0208C694.542 53.0208 696.138 54.5053 697.256 56.5837Z" fill="white"/>
</svg>
